<svg xmlns="http://www.w3.org/2000/svg" viewBox="0 0 700 400">
  <defs>
    <linearGradient id="headerGrad" x1="0%" y1="0%" x2="100%" y2="0%">
      <stop offset="0%" style="stop-color:#6366f1"/>
      <stop offset="100%" style="stop-color:#8b5cf6"/>
    </linearGradient>
    <linearGradient id="step1Grad" x1="0%" y1="0%" x2="0%" y2="100%">
      <stop offset="0%" style="stop-color:#3b82f6"/>
      <stop offset="100%" style="stop-color:#1d4ed8"/>
    </linearGradient>
    <linearGradient id="step2Grad" x1="0%" y1="0%" x2="0%" y2="100%">
      <stop offset="0%" style="stop-color:#10b981"/>
      <stop offset="100%" style="stop-color:#047857"/>
    </linearGradient>
    <linearGradient id="step3Grad" x1="0%" y1="0%" x2="0%" y2="100%">
      <stop offset="0%" style="stop-color:#f59e0b"/>
      <stop offset="100%" style="stop-color:#d97706"/>
    </linearGradient>
    <linearGradient id="step4Grad" x1="0%" y1="0%" x2="0%" y2="100%">
      <stop offset="0%" style="stop-color:#ec4899"/>
      <stop offset="100%" style="stop-color:#be185d"/>
    </linearGradient>
    <filter id="shadow" x="-20%" y="-20%" width="140%" height="140%">
      <feDropShadow dx="2" dy="2" stdDeviation="3" flood-opacity="0.15"/>
    </filter>
    <marker id="arrow" markerWidth="10" markerHeight="10" refX="9" refY="3" orient="auto" markerUnits="strokeWidth">
      <path d="M0,0 L0,6 L9,3 z" fill="#94a3b8"/>
    </marker>
  </defs>

  <!-- Background -->
  <rect width="700" height="400" fill="#f8fafc"/>

  <!-- Title -->
  <rect x="150" y="10" width="400" height="40" rx="8" fill="url(#headerGrad)" filter="url(#shadow)"/>
  <text x="350" y="37" text-anchor="middle" fill="white" font-family="Arial, sans-serif" font-size="14" font-weight="bold">PROCESSUS : Article → Implementation</text>

  <!-- Step 1: Lecture Critique -->
  <g transform="translate(30, 70)">
    <rect x="0" y="0" width="150" height="130" rx="10" fill="url(#step1Grad)" filter="url(#shadow)"/>
    <rect x="10" y="10" width="40" height="25" rx="5" fill="rgba(255,255,255,0.2)"/>
    <text x="30" y="28" text-anchor="middle" fill="white" font-family="Arial, sans-serif" font-size="14" font-weight="bold">1</text>
    <text x="75" y="55" text-anchor="middle" fill="white" font-family="Arial, sans-serif" font-size="11" font-weight="bold">LECTURE</text>
    <text x="75" y="70" text-anchor="middle" fill="white" font-family="Arial, sans-serif" font-size="11" font-weight="bold">CRITIQUE</text>
    <text x="15" y="92" fill="rgba(255,255,255,0.9)" font-family="Arial, sans-serif" font-size="9">• Abstract: Probleme?</text>
    <text x="15" y="106" fill="rgba(255,255,255,0.9)" font-family="Arial, sans-serif" font-size="9">• Results: Gains?</text>
    <text x="15" y="120" fill="rgba(255,255,255,0.9)" font-family="Arial, sans-serif" font-size="9">• Method: Algo clair?</text>
  </g>

  <!-- Arrow 1→2 -->
  <line x1="185" y1="135" x2="205" y2="135" stroke="#94a3b8" stroke-width="3" marker-end="url(#arrow)"/>

  <!-- Step 2: Prototype -->
  <g transform="translate(210, 70)">
    <rect x="0" y="0" width="150" height="130" rx="10" fill="url(#step2Grad)" filter="url(#shadow)"/>
    <rect x="10" y="10" width="40" height="25" rx="5" fill="rgba(255,255,255,0.2)"/>
    <text x="30" y="28" text-anchor="middle" fill="white" font-family="Arial, sans-serif" font-size="14" font-weight="bold">2</text>
    <text x="75" y="60" text-anchor="middle" fill="white" font-family="Arial, sans-serif" font-size="11" font-weight="bold">PROTOTYPE</text>
    <text x="15" y="85" fill="rgba(255,255,255,0.9)" font-family="Arial, sans-serif" font-size="9">• Cas simple</text>
    <text x="15" y="99" fill="rgba(255,255,255,0.9)" font-family="Arial, sans-serif" font-size="9">• Exemples du paper</text>
    <text x="15" y="113" fill="rgba(255,255,255,0.9)" font-family="Arial, sans-serif" font-size="9">• Valider metriques</text>
  </g>

  <!-- Arrow 2→3 -->
  <line x1="365" y1="135" x2="385" y2="135" stroke="#94a3b8" stroke-width="3" marker-end="url(#arrow)"/>

  <!-- Step 3: Adaptation -->
  <g transform="translate(390, 70)">
    <rect x="0" y="0" width="150" height="130" rx="10" fill="url(#step3Grad)" filter="url(#shadow)"/>
    <rect x="10" y="10" width="40" height="25" rx="5" fill="rgba(255,255,255,0.2)"/>
    <text x="30" y="28" text-anchor="middle" fill="white" font-family="Arial, sans-serif" font-size="14" font-weight="bold">3</text>
    <text x="75" y="60" text-anchor="middle" fill="white" font-family="Arial, sans-serif" font-size="11" font-weight="bold">ADAPTATION</text>
    <text x="15" y="85" fill="rgba(255,255,255,0.9)" font-family="Arial, sans-serif" font-size="9">• Contexte Grok-CLI</text>
    <text x="15" y="99" fill="rgba(255,255,255,0.9)" font-family="Arial, sans-serif" font-size="9">• Cas edge</text>
    <text x="15" y="113" fill="rgba(255,255,255,0.9)" font-family="Arial, sans-serif" font-size="9">• Optimiser prod</text>
  </g>

  <!-- Arrow 3→4 -->
  <line x1="545" y1="135" x2="565" y2="135" stroke="#94a3b8" stroke-width="3" marker-end="url(#arrow)"/>

  <!-- Step 4: Integration -->
  <g transform="translate(520, 70)">
    <rect x="0" y="0" width="150" height="130" rx="10" fill="url(#step4Grad)" filter="url(#shadow)"/>
    <rect x="10" y="10" width="40" height="25" rx="5" fill="rgba(255,255,255,0.2)"/>
    <text x="30" y="28" text-anchor="middle" fill="white" font-family="Arial, sans-serif" font-size="14" font-weight="bold">4</text>
    <text x="75" y="60" text-anchor="middle" fill="white" font-family="Arial, sans-serif" font-size="11" font-weight="bold">INTEGRATION</text>
    <text x="15" y="85" fill="rgba(255,255,255,0.9)" font-family="Arial, sans-serif" font-size="9">• Interface TypeScript</text>
    <text x="15" y="99" fill="rgba(255,255,255,0.9)" font-family="Arial, sans-serif" font-size="9">• Tests unit/integ</text>
    <text x="15" y="113" fill="rgba(255,255,255,0.9)" font-family="Arial, sans-serif" font-size="9">• Documentation</text>
  </g>

  <!-- Flow summary -->
  <g transform="translate(50, 230)">
    <rect x="0" y="0" width="600" height="80" rx="8" fill="#f1f5f9" stroke="#e2e8f0" stroke-width="2"/>
    <text x="300" y="25" text-anchor="middle" font-family="Arial, sans-serif" font-size="12" font-weight="bold" fill="#475569">Flux de travail</text>

    <g transform="translate(30, 45)">
      <rect x="0" y="0" width="80" height="25" rx="4" fill="#dbeafe"/>
      <text x="40" y="17" text-anchor="middle" font-family="Arial, sans-serif" font-size="9" fill="#1e40af">Paper</text>
    </g>
    <text x="125" y="57" font-family="Arial, sans-serif" font-size="14" fill="#94a3b8">→</text>
    <g transform="translate(140, 45)">
      <rect x="0" y="0" width="80" height="25" rx="4" fill="#d1fae5"/>
      <text x="40" y="17" text-anchor="middle" font-family="Arial, sans-serif" font-size="9" fill="#065f46">PoC</text>
    </g>
    <text x="235" y="57" font-family="Arial, sans-serif" font-size="14" fill="#94a3b8">→</text>
    <g transform="translate(250, 45)">
      <rect x="0" y="0" width="80" height="25" rx="4" fill="#fef3c7"/>
      <text x="40" y="17" text-anchor="middle" font-family="Arial, sans-serif" font-size="9" fill="#92400e">Adapte</text>
    </g>
    <text x="345" y="57" font-family="Arial, sans-serif" font-size="14" fill="#94a3b8">→</text>
    <g transform="translate(360, 45)">
      <rect x="0" y="0" width="80" height="25" rx="4" fill="#fce7f3"/>
      <text x="40" y="17" text-anchor="middle" font-family="Arial, sans-serif" font-size="9" fill="#9d174d">Production</text>
    </g>
    <text x="455" y="57" font-family="Arial, sans-serif" font-size="14" fill="#94a3b8">→</text>
    <g transform="translate(470, 45)">
      <rect x="0" y="0" width="100" height="25" rx="4" fill="#10b981"/>
      <text x="50" y="17" text-anchor="middle" font-family="Arial, sans-serif" font-size="9" fill="white" font-weight="bold">Grok-CLI</text>
    </g>
  </g>

  <!-- Tips -->
  <g transform="translate(50, 330)">
    <rect x="0" y="0" width="600" height="55" rx="6" fill="#fffbeb" stroke="#fbbf24" stroke-width="1"/>
    <text x="20" y="20" font-family="Arial, sans-serif" font-size="11" font-weight="bold" fill="#92400e">💡 Conseils</text>
    <text x="20" y="38" font-family="Arial, sans-serif" font-size="9" fill="#78350f">• Toujours valider les metriques du paper avant d'integrer</text>
    <text x="320" y="38" font-family="Arial, sans-serif" font-size="9" fill="#78350f">• Commencer par le cas le plus simple</text>
    <text x="20" y="50" font-family="Arial, sans-serif" font-size="9" fill="#78350f">• Documenter les ecarts avec l'implementation originale</text>
  </g>
</svg>
