<svg xmlns="http://www.w3.org/2000/svg" viewBox="0 0 800 450">
  <defs>
    <linearGradient id="bgGrad6" x1="0%" y1="0%" x2="100%" y2="100%">
      <stop offset="0%" style="stop-color:#1a1a2e;stop-opacity:1" />
      <stop offset="100%" style="stop-color:#16213e;stop-opacity:1" />
    </linearGradient>
    <linearGradient id="barGrad" x1="0%" y1="0%" x2="0%" y2="100%">
      <stop offset="0%" style="stop-color:#3498db;stop-opacity:1" />
      <stop offset="100%" style="stop-color:#2980b9;stop-opacity:1" />
    </linearGradient>
    <linearGradient id="dangerGrad" x1="0%" y1="0%" x2="0%" y2="100%">
      <stop offset="0%" style="stop-color:#e74c3c;stop-opacity:0.3" />
      <stop offset="100%" style="stop-color:#c0392b;stop-opacity:0.3" />
    </linearGradient>
  </defs>

  <!-- Background -->
  <rect width="800" height="450" fill="url(#bgGrad6)"/>

  <!-- Title -->
  <text x="400" y="35" font-family="Arial, sans-serif" font-size="22" font-weight="bold" fill="#ffffff" text-anchor="middle">🧠 DISTRIBUTION DE L'ATTENTION (Lost in the Middle)</text>

  <!-- Subtitle -->
  <text x="400" y="60" font-family="Arial, sans-serif" font-size="12" fill="#888888" text-anchor="middle">Stanford University - Nelson Liu et al., 2023</text>

  <!-- Chart area -->
  <rect x="100" y="90" width="600" height="250" fill="#2d2d44" rx="10"/>

  <!-- Y axis -->
  <line x1="130" y1="110" x2="130" y2="320" stroke="#4a4a6a" stroke-width="2"/>
  <text x="120" y="120" font-family="Arial, sans-serif" font-size="10" fill="#aaaaaa" text-anchor="end">100%</text>
  <text x="120" y="170" font-family="Arial, sans-serif" font-size="10" fill="#aaaaaa" text-anchor="end">75%</text>
  <text x="120" y="220" font-family="Arial, sans-serif" font-size="10" fill="#aaaaaa" text-anchor="end">50%</text>
  <text x="120" y="270" font-family="Arial, sans-serif" font-size="10" fill="#aaaaaa" text-anchor="end">25%</text>
  <text x="120" y="320" font-family="Arial, sans-serif" font-size="10" fill="#aaaaaa" text-anchor="end">0%</text>
  <text x="50" y="215" font-family="Arial, sans-serif" font-size="11" fill="#cccccc" text-anchor="middle" transform="rotate(-90, 50, 215)">Attention</text>

  <!-- X axis -->
  <line x1="130" y1="320" x2="680" y2="320" stroke="#4a4a6a" stroke-width="2"/>
  <text x="400" y="345" font-family="Arial, sans-serif" font-size="11" fill="#cccccc" text-anchor="middle">Position dans le contexte</text>

  <!-- Danger zone (middle) -->
  <rect x="280" y="110" width="240" height="210" fill="url(#dangerGrad)" rx="5"/>
  <text x="400" y="305" font-family="Arial, sans-serif" font-size="12" fill="#e74c3c" text-anchor="middle">ZONE OUBLIÉE</text>

  <!-- Bars representing attention -->
  <!-- Beginning bars (high) -->
  <rect x="150" y="120" width="30" height="190" fill="url(#barGrad)" rx="3"/>
  <rect x="185" y="130" width="30" height="180" fill="url(#barGrad)" rx="3"/>
  <rect x="220" y="145" width="30" height="165" fill="url(#barGrad)" rx="3"/>
  <rect x="255" y="170" width="30" height="140" fill="url(#barGrad)" rx="3"/>

  <!-- Middle bars (low - the "lost" zone) -->
  <rect x="290" y="250" width="30" height="60" fill="#e74c3c" rx="3"/>
  <rect x="325" y="260" width="30" height="50" fill="#e74c3c" rx="3"/>
  <rect x="360" y="270" width="30" height="40" fill="#e74c3c" rx="3"/>
  <rect x="395" y="265" width="30" height="45" fill="#e74c3c" rx="3"/>
  <rect x="430" y="255" width="30" height="55" fill="#e74c3c" rx="3"/>
  <rect x="465" y="240" width="30" height="70" fill="#e74c3c" rx="3"/>

  <!-- End bars (high again) -->
  <rect x="500" y="175" width="30" height="135" fill="url(#barGrad)" rx="3"/>
  <rect x="535" y="155" width="30" height="155" fill="url(#barGrad)" rx="3"/>
  <rect x="570" y="140" width="30" height="170" fill="url(#barGrad)" rx="3"/>
  <rect x="605" y="125" width="30" height="185" fill="url(#barGrad)" rx="3"/>
  <rect x="640" y="115" width="30" height="195" fill="url(#barGrad)" rx="3"/>

  <!-- Labels -->
  <text x="200" y="335" font-family="Arial, sans-serif" font-size="11" fill="#3498db" text-anchor="middle">Début</text>
  <text x="400" y="335" font-family="Arial, sans-serif" font-size="11" fill="#e74c3c" text-anchor="middle">Milieu</text>
  <text x="600" y="335" font-family="Arial, sans-serif" font-size="11" fill="#3498db" text-anchor="middle">Fin</text>

  <!-- Accuracy indicators -->
  <text x="200" y="105" font-family="Arial, sans-serif" font-size="11" font-weight="bold" fill="#2ecc71" text-anchor="middle">98%</text>
  <text x="400" y="105" font-family="Arial, sans-serif" font-size="11" font-weight="bold" fill="#e74c3c" text-anchor="middle">45%</text>
  <text x="600" y="105" font-family="Arial, sans-serif" font-size="11" font-weight="bold" fill="#2ecc71" text-anchor="middle">95%</text>

  <!-- Bottom insight box -->
  <rect x="150" y="370" width="500" height="60" rx="10" fill="#1e3a1e" stroke="#2ecc71" stroke-width="2"/>
  <text x="400" y="395" font-family="Arial, sans-serif" font-size="14" font-weight="bold" fill="#2ecc71" text-anchor="middle">💡 IMPLICATION CRITIQUE</text>
  <text x="400" y="418" font-family="Arial, sans-serif" font-size="12" fill="#ffffff" text-anchor="middle">Placer les informations importantes au DÉBUT et à la FIN du contexte</text>
</svg>
