<?xml version="1.0" encoding="UTF-8"?>
<svg xmlns="http://www.w3.org/2000/svg" viewBox="0 0 950 650" font-family="'Segoe UI', Arial, sans-serif">
  <defs>
    <linearGradient id="shortTermGrad" x1="0%" y1="0%" x2="100%" y2="100%">
      <stop offset="0%" style="stop-color:#f093fb"/>
      <stop offset="100%" style="stop-color:#f5576c"/>
    </linearGradient>
    <linearGradient id="mediumTermGrad" x1="0%" y1="0%" x2="100%" y2="100%">
      <stop offset="0%" style="stop-color:#4facfe"/>
      <stop offset="100%" style="stop-color:#00f2fe"/>
    </linearGradient>
    <linearGradient id="longTermGrad" x1="0%" y1="0%" x2="100%" y2="100%">
      <stop offset="0%" style="stop-color:#667eea"/>
      <stop offset="100%" style="stop-color:#764ba2"/>
    </linearGradient>
    <linearGradient id="ragGrad" x1="0%" y1="0%" x2="100%" y2="100%">
      <stop offset="0%" style="stop-color:#11998e"/>
      <stop offset="100%" style="stop-color:#38ef7d"/>
    </linearGradient>
    <filter id="shadow">
      <feDropShadow dx="2" dy="2" stdDeviation="4" flood-opacity="0.3"/>
    </filter>
  </defs>

  <!-- Background -->
  <rect width="950" height="650" fill="#0f0f23"/>

  <!-- Title -->
  <text x="475" y="40" text-anchor="middle" fill="white" font-size="26" font-weight="bold">
    Architecture Mémoire Multi-Niveaux
  </text>
  <text x="475" y="68" text-anchor="middle" fill="#718096" font-size="14">
    Comment l'agent se souvient : de la session à la connaissance permanente
  </text>

  <!-- Speed/Duration axis on left -->
  <g transform="translate(50, 100)">
    <line x1="0" y1="0" x2="0" y2="450" stroke="#4a5568" stroke-width="2"/>
    <polygon points="0,0 -5,10 5,10" fill="#4a5568"/>
    <text x="-10" y="-10" text-anchor="middle" fill="#a0aec0" font-size="12" font-weight="bold" transform="rotate(-90)">
    </text>
    <text x="-25" y="50" fill="#f56565" font-size="10">Rapide</text>
    <text x="-25" y="430" fill="#48bb78" font-size="10">Durable</text>
  </g>

  <!-- Layer 1: Short-term Memory (Working Memory) -->
  <g transform="translate(100, 100)" filter="url(#shadow)">
    <rect x="0" y="0" width="800" height="130" rx="15" fill="#1a1a3a" stroke="url(#shortTermGrad)" stroke-width="3"/>
    <rect x="0" y="0" width="200" height="130" rx="15" fill="url(#shortTermGrad)"/>

    <!-- Left section: title and icon -->
    <text x="100" y="35" text-anchor="middle" fill="white" font-size="18" font-weight="bold">COURT TERME</text>
    <text x="100" y="60" text-anchor="middle" fill="rgba(255,255,255,0.8)" font-size="12">Working Memory</text>
    <text x="100" y="95" text-anchor="middle" fill="white" font-size="40">🧠</text>

    <!-- Middle section: content -->
    <g transform="translate(220, 25)">
      <text x="0" y="0" fill="#e2e8f0" font-size="13" font-weight="bold">Contenu stocké :</text>
      <text x="0" y="22" fill="#a0aec0" font-size="11">• Messages de la conversation courante (user + assistant)</text>
      <text x="0" y="40" fill="#a0aec0" font-size="11">• Résultats des tool calls récents</text>
      <text x="0" y="58" fill="#a0aec0" font-size="11">• Fichiers ouverts/modifiés dans la session</text>
      <text x="0" y="76" fill="#a0aec0" font-size="11">• Context window actif (128K tokens max)</text>
    </g>

    <!-- Right section: specs -->
    <g transform="translate(620, 25)">
      <rect x="0" y="0" width="160" height="90" rx="8" fill="#2d3748"/>
      <text x="80" y="20" text-anchor="middle" fill="#f5576c" font-size="11" font-weight="bold">Spécifications</text>
      <text x="15" y="40" fill="#a0aec0" font-size="10">Durée: minutes/heures</text>
      <text x="15" y="55" fill="#a0aec0" font-size="10">Stockage: RAM</text>
      <text x="15" y="70" fill="#a0aec0" font-size="10">Limite: ~128K tokens</text>
      <text x="15" y="85" fill="#ffd700" font-size="10">Volatilité: HAUTE</text>
    </g>
  </g>

  <!-- Arrow down -->
  <g transform="translate(475, 235)">
    <path d="M0 0 L0 25" stroke="#4a5568" stroke-width="3"/>
    <polygon points="0,30 -8,20 8,20" fill="#4a5568"/>
    <text x="30" y="18" fill="#718096" font-size="10">Résumé automatique</text>
  </g>

  <!-- Layer 2: Medium-term Memory (Session Memory) -->
  <g transform="translate(100, 270)" filter="url(#shadow)">
    <rect x="0" y="0" width="800" height="130" rx="15" fill="#1a1a3a" stroke="url(#mediumTermGrad)" stroke-width="3"/>
    <rect x="0" y="0" width="200" height="130" rx="15" fill="url(#mediumTermGrad)"/>

    <!-- Left section -->
    <text x="100" y="35" text-anchor="middle" fill="white" font-size="18" font-weight="bold">MOYEN TERME</text>
    <text x="100" y="60" text-anchor="middle" fill="rgba(255,255,255,0.8)" font-size="12">Session Memory</text>
    <text x="100" y="95" text-anchor="middle" fill="white" font-size="40">📋</text>

    <!-- Middle section -->
    <g transform="translate(220, 25)">
      <text x="0" y="0" fill="#e2e8f0" font-size="13" font-weight="bold">Contenu stocké :</text>
      <text x="0" y="22" fill="#a0aec0" font-size="11">• Résumés des conversations précédentes de la session</text>
      <text x="0" y="40" fill="#a0aec0" font-size="11">• Liste des fichiers modifiés avec timestamps</text>
      <text x="0" y="58" fill="#a0aec0" font-size="11">• Décisions importantes et leur contexte</text>
      <text x="0" y="76" fill="#a0aec0" font-size="11">• Statistiques de la session (tokens, outils, coût)</text>
    </g>

    <!-- Right section -->
    <g transform="translate(620, 25)">
      <rect x="0" y="0" width="160" height="90" rx="8" fill="#2d3748"/>
      <text x="80" y="20" text-anchor="middle" fill="#00f2fe" font-size="11" font-weight="bold">Spécifications</text>
      <text x="15" y="40" fill="#a0aec0" font-size="10">Durée: heures/jours</text>
      <text x="15" y="55" fill="#a0aec0" font-size="10">Stockage: SQLite</text>
      <text x="15" y="70" fill="#a0aec0" font-size="10">Table: sessions</text>
      <text x="15" y="85" fill="#48bb78" font-size="10">Volatilité: MOYENNE</text>
    </g>
  </g>

  <!-- Arrow down -->
  <g transform="translate(475, 405)">
    <path d="M0 0 L0 25" stroke="#4a5568" stroke-width="3"/>
    <polygon points="0,30 -8,20 8,20" fill="#4a5568"/>
    <text x="30" y="18" fill="#718096" font-size="10">Apprentissage</text>
  </g>

  <!-- Layer 3: Long-term Memory (Persistent Memory) -->
  <g transform="translate(100, 440)" filter="url(#shadow)">
    <rect x="0" y="0" width="800" height="130" rx="15" fill="#1a1a3a" stroke="url(#longTermGrad)" stroke-width="3"/>
    <rect x="0" y="0" width="200" height="130" rx="15" fill="url(#longTermGrad)"/>

    <!-- Left section -->
    <text x="100" y="35" text-anchor="middle" fill="white" font-size="18" font-weight="bold">LONG TERME</text>
    <text x="100" y="60" text-anchor="middle" fill="rgba(255,255,255,0.8)" font-size="12">Persistent Memory</text>
    <text x="100" y="95" text-anchor="middle" fill="white" font-size="40">🏛️</text>

    <!-- Middle section -->
    <g transform="translate(220, 25)">
      <text x="0" y="0" fill="#e2e8f0" font-size="13" font-weight="bold">Contenu stocké :</text>
      <text x="0" y="22" fill="#a0aec0" font-size="11">• Embeddings du codebase complet (RAG vectoriel)</text>
      <text x="0" y="40" fill="#a0aec0" font-size="11">• Patterns de réparation appris avec scores de confiance</text>
      <text x="0" y="58" fill="#a0aec0" font-size="11">• Conventions et style du projet (indentation, quotes...)</text>
      <text x="0" y="76" fill="#a0aec0" font-size="11">• Préférences utilisateur persistantes</text>
    </g>

    <!-- Right section -->
    <g transform="translate(620, 25)">
      <rect x="0" y="0" width="160" height="90" rx="8" fill="#2d3748"/>
      <text x="80" y="20" text-anchor="middle" fill="#764ba2" font-size="11" font-weight="bold">Spécifications</text>
      <text x="15" y="40" fill="#a0aec0" font-size="10">Durée: permanente</text>
      <text x="15" y="55" fill="#a0aec0" font-size="10">Stockage: SQLite +</text>
      <text x="15" y="70" fill="#a0aec0" font-size="10">Vector DB</text>
      <text x="15" y="85" fill="#667eea" font-size="10">Volatilité: BASSE</text>
    </g>
  </g>

  <!-- RAG Process sidebar -->
  <g transform="translate(920, 270)">
    <text x="0" y="0" fill="#38ef7d" font-size="11" font-weight="bold" transform="rotate(90)">RAG Pipeline</text>
  </g>

  <!-- Bottom legend -->
  <g transform="translate(100, 595)">
    <text x="0" y="0" fill="#718096" font-size="12" font-weight="bold">Analogie humaine :</text>
    <text x="150" y="0" fill="#f5576c" font-size="11">Court terme = Ce que vous pensez maintenant</text>
    <text x="420" y="0" fill="#00f2fe" font-size="11">Moyen terme = Ce que vous avez fait aujourd'hui</text>
    <text x="710" y="0" fill="#764ba2" font-size="11">Long terme = Ce que vous savez</text>
  </g>
</svg>
